# Blender 5.0.0
# www.blender.org
mtllib face_low_poly_lod_1.mtl
o starter.v1.step3.face.clayp.9.half2_2.ZRx4_Retopology
v 0.000000 171.518173 8.597857
v 5.018994 170.382645 6.530016
v 2.944204 164.462418 7.618731
v 0.000000 165.251755 10.264789
v 4.729095 172.562637 6.034631
v 6.718292 170.010071 2.644946
v 5.380005 174.194382 3.751968
v 0.000000 173.963409 7.783831
v 2.347856 159.876617 7.341602
v 0.000000 160.032379 8.429248
v 0.000000 177.206223 4.531054
v 6.205579 164.800369 4.259540
v 1.624266 157.426102 5.223552
v 0.000000 157.061493 5.604986
v 3.292551 158.211899 3.024645
v 0.000000 156.791367 3.285026
v 2.794260 157.673462 1.464256
v 0.000000 156.518311 2.384243
v 6.014801 175.814255 -2.128005
v 7.337280 172.267502 -2.410718
v 7.483429 168.786835 -2.149204
v 7.257629 167.349899 -0.385164
v 6.973328 164.928009 -0.128398
v 6.045158 162.375198 2.721442
v 6.301575 162.725311 -1.161028
v 0.000000 178.688309 -0.566390
v -5.018994 170.382645 6.530016
v -2.944204 164.462418 7.618731
v -4.729095 172.562637 6.034631
v -6.718292 170.010071 2.644946
v -5.380005 174.194382 3.751968
v -2.347856 159.876617 7.341602
v -6.205579 164.800369 4.259540
v -1.624266 157.426102 5.223552
v -3.292551 158.211899 3.024645
v -2.794260 157.673462 1.464256
v -6.014801 175.814255 -2.128005
v -7.337280 172.267502 -2.410718
v -7.483429 168.786835 -2.149204
v -7.257629 167.349899 -0.385164
v -6.973328 164.928009 -0.128398
v -6.045158 162.375198 2.721442
v -6.301575 162.725311 -1.161028
vn 0.5249 0.1017 0.8451
vn 0.9028 0.1941 0.3837
vn 0.4114 0.2721 0.8699
vn 0.5387 -0.2086 0.8163
vn 0.4386 0.6482 0.6224
vn 0.8237 -0.0544 0.5643
vn 0.2894 -0.6657 0.6878
vn 0.3435 -0.9390 0.0197
vn 0.4151 -0.8857 0.2080
vn 0.9358 0.2846 0.2082
vn 0.9882 0.0443 0.1464
vn 0.9799 -0.0554 0.1916
vn 0.7724 -0.2360 0.5897
vn 0.9667 -0.2329 0.1063
vn 0.8245 -0.5655 -0.0171
vn 0.7782 -0.5097 0.3669
vn 0.4849 0.8339 0.2637
vn -0.5249 0.1017 0.8451
vn -0.9028 0.1941 0.3837
vn -0.4114 0.2721 0.8699
vn -0.5387 -0.2086 0.8163
vn -0.4386 0.6482 0.6224
vn -0.8237 -0.0544 0.5643
vn -0.2894 -0.6657 0.6878
vn -0.3435 -0.9390 0.0197
vn -0.4151 -0.8857 0.2080
vn -0.9358 0.2846 0.2082
vn -0.9882 0.0443 0.1464
vn -0.9799 -0.0554 0.1916
vn -0.7724 -0.2360 0.5897
vn -0.9667 -0.2329 0.1063
vn -0.8245 -0.5655 -0.0171
vn -0.7782 -0.5097 0.3669
vn -0.4849 0.8339 0.2637
s 0
f 1//1 4//1 3//1 2//1
f 2//2 6//2 7//2 5//2
f 5//3 8//3 1//3 2//3
f 3//4 4//4 10//4 9//4
f 11//5 8//5 5//5 7//5
f 6//6 2//6 3//6 12//6
f 9//7 10//7 14//7 13//7
f 13//8 14//8 16//8 15//8
f 15//9 16//9 18//9 17//9
f 7//10 6//10 20//10 19//10
f 20//11 6//11 22//11 21//11
f 22//12 6//12 12//12 23//12
f 12//13 3//13 9//13 24//13
f 23//14 12//14 24//14 25//14
f 17//15 25//15 24//15 15//15
f 13//16 15//16 24//16 9//16
f 19//17 26//17 11//17 7//17
f 1//18 27//18 28//18 4//18
f 27//19 29//19 31//19 30//19
f 29//20 27//20 1//20 8//20
f 28//21 32//21 10//21 4//21
f 11//22 31//22 29//22 8//22
f 30//23 33//23 28//23 27//23
f 32//24 34//24 14//24 10//24
f 34//25 35//25 16//25 14//25
f 35//26 36//26 18//26 16//26
f 31//27 37//27 38//27 30//27
f 38//28 39//28 40//28 30//28
f 40//29 41//29 33//29 30//29
f 33//30 42//30 32//30 28//30
f 41//31 43//31 42//31 33//31
f 36//32 35//32 42//32 43//32
f 34//33 32//33 42//33 35//33
f 37//34 31//34 11//34 26//34
